<svg xmlns="http://www.w3.org/2000/svg" xmlns:xlink="http://www.w3.org/1999/xlink" viewBox="0,0,256,256" width="48px" height="48px" fill-rule="nonzero"><g fill="#ffffff" fill-rule="nonzero" stroke="none" stroke-width="1" stroke-linecap="butt" stroke-linejoin="miter" stroke-miterlimit="10" stroke-dasharray="" stroke-dashoffset="0" font-family="none" font-weight="none" font-size="none" text-anchor="none" style="mix-blend-mode: normal"><g transform="scale(5.33333,5.33333)"><path d="M24,2c-6.075,0 -11,4.925 -11,11c0,6.075 4.925,11 11,11c6.075,0 11,-4.925 11,-11c0,-6.075 -4.925,-11 -11,-11zM24,8.94727c2.238,0 4.05273,1.81373 4.05273,4.05273c0,2.238 -1.81473,4.05273 -4.05273,4.05273c-2.238,0 -4.05273,-1.81373 -4.05273,-4.05273c0,-2.238 1.81373,-4.05273 4.05273,-4.05273zM33.18555,24.04688c-0.78263,-0.03741 -1.56105,0.15631 -2.24805,0.57031c-4.15,2.499 -9.726,2.499 -13.875,0c-1.89,-1.139 -4.35223,-0.52672 -5.49023,1.36328c-0.551,0.916 -0.71403,1.99034 -0.45703,3.02734c0.258,1.037 0.90431,1.91289 1.82031,2.46289c1.461,0.88 3.02397,1.57889 4.66797,2.08789l-5.59375,5.78125c-0.709,0.799 -1.06691,1.82558 -1.00391,2.89258c0.063,1.067 0.53694,2.04391 1.33594,2.75391c0.764,0.679 1.71902,1.01172 2.66602,1.01172c1.096,0 2.18213,-0.4455 2.95313,-1.3125l6.03906,-6.24219l6.01367,6.20898c0.758,0.854 1.84823,1.3418 2.99023,1.3418c0.979,0 1.92225,-0.35877 2.65625,-1.00977c1.648,-1.465 1.79869,-3.99773 0.30469,-5.67773l-5.56836,-5.74805c1.644,-0.51 3.20892,-1.20984 4.66992,-2.08984c0.915,-0.551 1.56136,-1.42394 1.81836,-2.46094c0.257,-1.037 0.09397,-2.11234 -0.45703,-3.02734c-0.551,-0.915 -1.42394,-1.56136 -2.46094,-1.81836c-0.259,-0.0645 -0.52038,-0.10277 -0.78125,-0.11523z"></path></g></g></svg>