<svg xmlns="http://www.w3.org/2000/svg" xmlns:xlink="http://www.w3.org/1999/xlink" viewBox="0,0,256,256" width="48px" height="48px" fill-rule="nonzero"><g fill="#ffffff" fill-rule="nonzero" stroke="none" stroke-width="1" stroke-linecap="butt" stroke-linejoin="miter" stroke-miterlimit="10" stroke-dasharray="" stroke-dashoffset="0" font-family="none" font-weight="none" font-size="none" text-anchor="none" style="mix-blend-mode: normal"><g transform="scale(5.33333,5.33333)"><path d="M4.009,23.496c0,-11.312 9.183,-20.495 20.496,-20.495c11.313,0 20.496,9.183 20.496,20.495c0,11.312 -9.183,20.495 -20.496,20.495c-11.313,0 -20.496,-9.183 -20.496,-20.495zM26,35.507v-10.382l8.549,-8.559c0.585,-0.587 0.585,-1.537 0,-2.121c-0.587,-0.585 -1.537,-0.585 -2.121,0l-7.931,7.939l-7.931,-7.939c-0.585,-0.585 -1.535,-0.585 -2.121,0c-0.585,0.585 -0.585,1.535 0,2.121l8.555,8.563v10.377c0,0.828 0.672,1.5 1.5,1.5c0.827,0.001 1.5,-0.671 1.5,-1.499z"></path></g></g></svg>